<svg height="480pt" viewBox="0 -7 480 479" width="480pt" xmlns="http://www.w3.org/2000/svg"><path d="m320 240.53125c-.015625 24.4375 18.328125 44.984375 42.609375 47.726562 24.28125 2.746094 46.75-13.191406 52.1875-37.011718 5.4375-23.824219-7.890625-47.929688-30.957031-55.996094-5.085938-1.800781-10.445313-2.71875-15.839844-2.71875-26.507812 0-48 21.492188-48 48zm0 0" fill="#f0cfb1"/><path d="m160 240.53125c.015625 24.4375-18.328125 44.984375-42.609375 47.726562-24.28125 2.746094-46.75-13.191406-52.1875-37.011718-5.4375-23.824219 7.890625-47.929688 30.957031-55.996094 5.085938-1.800781 10.445313-2.71875 15.839844-2.71875 26.507812 0 48 21.492188 48 48zm0 0" fill="#f0cfb1"/><path d="m192 160.53125h48v-40c-13.253906 0-24-10.746094-24-24s10.746094-24 24-24v-40h-48c0-13.253906-10.746094-24-24-24s-24 10.746094-24 24h-56v40c13.253906 0 24 10.746094 24 24s-10.746094 24-24 24v40h56c0 13.253906 10.746094 24 24 24s24-10.746094 24-24zm0 0" fill="#ad2943"/><path d="m384 72.53125v-40h-48c0 13.253906-10.746094 24-24 24s-24-10.746094-24-24h-48v40c-13.253906 0-24 10.746094-24 24s10.746094 24 24 24v40h48c0-13.253906 10.746094-24 24-24s24 10.746094 24 24h48v-40c13.253906 0 24-10.746094 24-24s-10.746094-24-24-24zm0 0" fill="#03aa6f"/><path d="m160 240.53125h-16c-25.421875-.042969-46.398438-19.898438-47.839844-45.28125 5.085938-1.800781 10.445313-2.71875 15.839844-2.71875 26.507812 0 48 21.492188 48 48zm0 0" fill="#b06f27"/><path d="m176.558594 336.53125c17.667968-.472656 31.675781-15.050781 31.441406-32.71875v-127.359375c-.023438-4.246094 1.679688-8.316406 4.71875-11.28125 3.34375-3.316406 7.976562-4.992187 12.664062-4.585937 8.484376 1.039062 14.804688 8.335937 14.617188 16.882812v127.0625c-.035156 35.019531-28.183594 63.523438-63.199219 64h-8.800781v88h-112v-90c-28.230469-7.355469-47.949219-32.824219-48-62v-104c0-35.347656 28.652344-64 64-64h7.023438c8.050781-.195312 15.089843 5.382812 16.746093 13.265625.792969 4.648437-.503906 9.414063-3.542969 13.023437-3.035156 3.609376-7.507812 5.699219-12.226562 5.710938h-8c-17.671875 0-32 14.328125-32 32v104c.007812.628906.082031 1.253906.222656 1.863281 2.28125 8.542969 10.140625 14.394531 18.976563 14.136719h84.800781c10.183594-.03125 19.265625 6.390625 22.632812 16zm0 0" fill="#168fba"/><path d="m320 240.53125c0-26.507812 21.492188-48 48-48 5.394531 0 10.753906.917969 15.839844 2.71875-1.441406 25.382812-22.417969 45.238281-47.839844 45.28125zm0 0" fill="#4e4e4e"/><path d="m313.367188 336.53125c3.367187-9.609375 12.449218-16.03125 22.632812-16h84.800781c8.832031.25 16.679688-5.597656 18.960938-14.136719.144531-.609375.226562-1.234375.238281-1.863281v-104c0-17.671875-14.328125-32-32-32h-8c-4.71875-.011719-9.191406-2.101562-12.226562-5.710938-3.039063-3.609374-4.335938-8.375-3.542969-13.023437 1.65625-7.882813 8.695312-13.460937 16.746093-13.265625h7.023438c35.347656 0 64 28.652344 64 64v104c-.050781 29.175781-19.769531 54.644531-48 62v90h-112v-88h-8.800781c-35.015625-.476562-63.164063-28.980469-63.199219-64v-127.0625c-.1875-8.546875 6.132812-15.84375 14.617188-16.882812 4.6875-.40625 9.320312 1.269531 12.664062 4.585937 3.039062 2.964844 4.742188 7.035156 4.71875 11.28125v127.359375c-.234375 17.667969 13.773438 32.246094 31.441406 32.71875zm0 0" fill="#f29a2b"/><path d="m56 240.53125c0 30.929688 25.070312 56 56 56s56-25.070312 56-56c0-30.925781-25.070312-56-56-56-30.914062.035156-55.964844 25.085938-56 56zm95.199219-8h-7.199219c-18.714844-.027344-34.910156-13.027344-38.984375-31.296875 21.394531-4.101563 42.066406 9.90625 46.183594 31.296875zm-61.191407-25.351562c6.625 24.375 28.734376 41.304687 53.992188 41.351562h7.199219c-3.59375 17.761719-18.683594 30.886719-36.773438 31.988281-18.085937 1.101563-34.65625-10.09375-40.382812-27.289062-5.722657-17.195313.824219-36.089844 15.964843-46.050781zm0 0"/><path d="m368 296.53125c30.929688 0 56-25.070312 56-56 0-30.925781-25.070312-56-56-56s-56 25.074219-56 56c.035156 30.914062 25.085938 55.964844 56 56zm40-56c.019531 20.550781-15.535156 37.773438-35.980469 39.839844-20.445312 2.0625-39.128906-11.699219-43.21875-31.839844h7.199219c25.257812-.046875 47.367188-16.976562 53.992188-41.351562 11.222656 7.386718 17.988281 19.914062 18.007812 33.351562zm-40-40c2.347656.03125 4.6875.265625 6.992188.703125-4.074219 18.273437-20.273438 31.273437-38.992188 31.296875h-7.199219c3.828125-18.609375 20.199219-31.976562 39.199219-32zm0 0"/><path d="m408 128.53125h-7.023438c-3.0625-.007812-6.105468.535156-8.976562 1.601562v-2.65625c14.128906-3.648437 24-16.394531 24-30.984374 0-14.59375-9.871094-27.335938-24-30.984376v-32.976562c0-4.417969-3.582031-8-8-8h-48c-4.417969 0-8 3.582031-8 8 0 8.835938-7.164062 16-16 16s-16-7.164062-16-16c0-4.417969-3.582031-8-8-8h-89.007812c-3.636719-14.144531-16.386719-24.03125-30.992188-24.03125s-27.355469 9.886719-30.992188 24.03125h-49.007812c-4.417969 0-8 3.582031-8 8v40c0 4.417969 3.582031 8 8 8 8.835938 0 16 7.164062 16 16s-7.164062 16-16 16c-4.417969 0-8 3.582031-8 8v8.089844c-.328125 0-.640625-.089844-.976562-.089844h-7.023438c-39.746094.042969-71.9570312 32.253906-72 72v104c.0351562 30.507812 19.253906 57.695312 48 67.90625v84.09375c0 4.417969 3.582031 8 8 8h112c4.417969 0 8-3.582031 8-8v-80h.886719c26.667969-.390625 50.945312-15.46875 63.113281-39.199219 12.195312 23.75 36.503906 38.824219 63.199219 39.199219h.800781v80c0 4.417969 3.582031 8 8 8h112c4.417969 0 8-3.582031 8-8v-84.09375c28.746094-10.210938 47.964844-37.398438 48-67.90625v-104c-.042969-39.746094-32.253906-71.957031-72-72zm-129.433594 40h9.433594c4.417969 0 8-3.582031 8-8 0-8.835938 7.164062-16 16-16s16 7.164062 16 16c0 4.417969 3.582031 8 8 8h46.230469c4.519531 5.066406 10.980469 7.976562 17.769531 8h8c13.253906 0 24 10.746094 24 24v104.152344c-1.515625 4.855468-6.117188 8.078125-11.199219 7.847656h-84.800781c-11.441406-.007812-22.015625 6.09375-27.734375 16h-5.066406c-5.6875-.011719-11.144531-2.253906-15.199219-6.246094-5.011719-4.855468-7.890625-11.5-8-18.472656v-127.359375c-.027344-2.703125-.511719-5.382813-1.433594-7.921875zm-180.796875 0h39.238281c3.636719 14.144531 16.386719 24.03125 30.992188 24.03125s27.355469-9.886719 30.992188-24.03125h2.398437c-.921875 2.539062-1.40625 5.21875-1.429687 7.921875v127.359375c-.109376 6.976562-2.988282 13.625-8 18.480469-3.851563 3.882812-9.058594 6.121093-14.527344 6.238281h-5.671875c-5.726563-9.914062-16.3125-16.015625-27.761719-16h-84.800781c-5.125.210938-9.738281-3.082031-11.199219-8v-104c0-13.253906 10.746094-24 24-24h8c6.789062-.023438 13.25-2.933594 17.769531-8zm150.230469-96v-32h33.007812c3.636719 14.144531 16.386719 24.03125 30.992188 24.03125s27.355469-9.886719 30.992188-24.03125h33.007812v32c0 4.417969 3.582031 8 8 8 8.835938 0 16 7.164062 16 16s-7.164062 16-16 16c-4.417969 0-8 3.582031-8 8v32h-33.007812c-3.636719-14.144531-16.386719-24.03125-30.992188-24.03125s-27.355469 9.886719-30.992188 24.03125h-33.007812v-32c0-4.417969-3.582031-8-8-8-8.835938 0-16-7.164062-16-16s7.164062-16 16-16c4.417969 0 8-3.582031 8-8zm-152 54.984375c14.128906-3.648437 24-16.390625 24-30.984375s-9.871094-27.335938-24-30.984375v-25.015625h48c4.417969 0 8-3.582031 8-8 0-8.835938 7.164062-16 16-16s16 7.164062 16 16c0 4.417969 3.582031 8 8 8h40v25.015625c-14.128906 3.648437-24 16.390625-24 30.984375s9.871094 27.335938 24 30.984375v25.015625h-40c-4.417969 0-8 3.582031-8 8 0 8.835938-7.164062 16-16 16s-16-7.164062-16-16c0-4.417969-3.582031-8-8-8h-40.105469c.035157-1.359375-.042969-2.71875-.230469-4.0625-.945312-5.222656-3.652343-9.964844-7.664062-13.441406zm80.800781 233.015625h-8.800781c-4.417969 0-8 3.582031-8 8v80h-96v-82c0-3.640625-2.457031-6.824219-5.984375-7.742188-24.71875-6.421874-41.984375-28.71875-42.015625-54.257812v-104c.035156-30.914062 25.085938-55.964844 56-56h7.023438c.328124.035156.652343.089844.976562.160156v15.839844h-8c-22.082031.027344-39.972656 17.917969-40 40v104c.003906 1.207031.144531 2.40625.40625 3.585938 3.089844 12.210937 14.199219 20.675781 26.792969 20.414062h84.800781c6.773438-.019531 12.820312 4.242188 15.070312 10.632812 1.121094 3.214844 4.15625 5.371094 7.5625 5.367188h9.808594c10.003906.179688 19.65625-3.695312 26.757813-10.742188 8.128906-7.863281 12.746093-18.667968 12.800781-29.976562v-127.359375c.003906-2.117187.871094-4.140625 2.398438-5.601563 1.664062-1.664062 3.972656-2.511718 6.3125-2.320312 4.339843.710938 7.464843 4.542969 7.289062 8.9375v127.0625c-.078125 30.585938-24.621094 55.480469-55.199219 56zm287.199219-56c-.03125 25.539062-17.296875 47.835938-42.015625 54.257812-3.527344.917969-5.984375 4.101563-5.984375 7.742188v82h-96v-80c0-4.417969-3.582031-8-8-8h-8.710938c-30.613281-.480469-55.203124-25.386719-55.289062-56v-127.0625c-.183594-4.390625 2.9375-8.226562 7.273438-8.9375 2.375-.230469 4.730468.628906 6.398437 2.335938 1.507813 1.464843 2.347656 3.484374 2.328125 5.585937v127.359375c.054688 11.308594 4.671875 22.113281 12.800781 29.976562 7.035157 7.074219 16.664063 10.957032 26.640625 10.742188h9.925782c3.40625.003906 6.441406-2.152344 7.5625-5.367188 2.25-6.390624 8.296874-10.652343 15.070312-10.632812h84.800781c12.585938.253906 23.6875-8.207031 26.773438-20.414062.273437-1.175782.414062-2.378907.425781-3.585938v-104c-.027344-22.082031-17.917969-39.972656-40-40h-8c-2.367188 0-4.617188-1.046875-6.136719-2.863281-1.523437-1.816407-2.160156-4.210938-1.742187-6.542969 1.035156-4.007812 4.71875-6.75 8.855468-6.59375h7.023438c30.914062.035156 55.964844 25.085938 56 56zm0 0"/></svg>