<?xml version="1.0"?>
<svg xmlns="http://www.w3.org/2000/svg" viewBox="0 0 64 64" width="512" height="512"><path d="m45 9h-26v21h26z" fill="#74d5e8"/><path d="m55.013 34.877-8.013 7.123h-11l5.979-1.631a3.02 3.02 0 1 0 -1.75-5.779l-10.229 3.41h-15l-5 5 12 12 7-5h20l10.874-9.968a3.474 3.474 0 0 0 1.126-2.56 3.473 3.473 0 0 0 -3.472-3.472h-.208a3.474 3.474 0 0 0 -2.307.877z" fill="#fff5e0"/><path d="m22 55-12-12-2-2-5 5 15 15 5-5z" fill="#10bde0"/><path d="m19 30h-16v4h54.32.208 3.472v-4h-16z" fill="#7d7d7d"/><path d="m26 3a6 6 0 0 0 6 6 6 6 0 0 0 -6-6z" fill="#e39d10"/><path d="m38 3a6 6 0 0 0 -6 6 6 6 0 0 0 6-6z" fill="#e39d10"/><g fill="#fff5e0"><path d="m32 28-4-11h-5l9 12 9-12h-5z"/><path d="m32 13 4 4h5l-3-4z"/><path d="m32 13h-6l-3 4h5z"/><path d="m32 17h4l-4-4-4 4z"/><path d="m28 17 4 11 4-11h-4z"/></g><path d="m61 29h-15v-20a1 1 0 0 0 -1-1h-8.111a6.973 6.973 0 0 0 2.111-5 1 1 0 0 0 -1-1 7 7 0 0 0 -6 3.413 7 7 0 0 0 -6-3.413 1 1 0 0 0 -1 1 6.973 6.973 0 0 0 2.111 5h-8.111a1 1 0 0 0 -1 1v20h-15a1 1 0 0 0 -1 1v4a1 1 0 0 0 1 1h32.838l-6 2h-14.838a1 1 0 0 0 -.707.293l-4.293 4.293-1.293-1.293a1 1 0 0 0 -1.414 0l-5 5a1 1 0 0 0 0 1.414l15 15a1 1 0 0 0 1.414 0l5-5a1 1 0 0 0 0-1.414l-.165-.165 5.778-4.128h19.68a1 1 0 0 0 .676-.263l10.874-9.967a4.464 4.464 0 0 0 .67-5.814.987.987 0 0 0 .78-.956v-4a1 1 0 0 0 -1-1zm-24.128-24.872a5.019 5.019 0 0 1 -3.744 3.744 5.019 5.019 0 0 1 3.744-3.744zm-6 3.744a5.019 5.019 0 0 1 -3.744-3.744 5.019 5.019 0 0 1 3.744 3.744zm-10.872 2.128h24v19h-10.75l8.55-11.4a1 1 0 0 0 0-1.2l-3-4a1 1 0 0 0 -.8-.4h-12a1 1 0 0 0 -.8.4l-3 4a1 1 0 0 0 0 1.2l8.55 11.4h-10.75zm14.573 8-2.573 7.074-2.573-7.074zm-4.159-2 1.586-1.586 1.586 1.586zm6.286 2h2.3l-4.465 5.953zm-.286-2-2-2h3.086l1.5 2zm-8.828 0h-2.586l1.5-2h3.086zm-.286 2 2.165 5.953-4.465-5.953zm-23.3 13h56v2h-56zm49.37 4-6.75 6h-3.549a4.014 4.014 0 0 0 1.3-6zm-35.37 24.586-13.586-13.586 3.586-3.586 13.586 13.586zm41.2-20.286-10.589 9.7h-19.611a1 1 0 0 0 -.581.186l-6.311 4.508-10.694-10.694 4-4h14.586a1 1 0 0 0 .316-.051l10.23-3.41a2.02 2.02 0 1 1 1.17 3.865l-5.85 1.596h-2.866v2h14a1 1 0 0 0 .664-.252l8.015-7.124a2.467 2.467 0 0 1 1.641-.624h.207a2.472 2.472 0 0 1 1.673 4.3z"/><path d="m7.5 44.379h2v4.243h-2z" transform="matrix(.70710678 -.70710678 .70710678 .70710678 -30.391 19.63)"/><path d="m49 6h2v2h-2z"/><path d="m51 4h2v2h-2z"/><path d="m53 6h2v2h-2z"/><path d="m51 8h2v2h-2z"/><path d="m60 3h2v2h-2z"/><path d="m52 14h2v2h-2z"/><path d="m11 13h2v2h-2z"/><path d="m11 17h2v2h-2z"/><path d="m13 15h2v2h-2z"/><path d="m9 15h2v2h-2z"/><path d="m2 8h2v2h-2z"/><path d="m11 3h2v2h-2z"/></svg>
