<svg id="Layer_35" enable-background="new 0 0 64 64" height="512" viewBox="0 0 64 64" width="512" xmlns="http://www.w3.org/2000/svg"><path d="m62 46v16h-57.5c.69 0 1.32-.28 1.77-.73.37-.37.63-.87.71-1.42l6.95-6.41c.43.35.98.56 1.57.56.69 0 1.32-.28 1.77-.73s.73-1.08.73-1.77v-1.5-.31l4-3.69h17.5 11z" fill="#b4dd7f"/><path d="m7 44v15.5c0 .12-.01.24-.02.35-.08.55-.34 1.05-.71 1.42-.45.45-1.08.73-1.77.73-1.38 0-2.5-1.12-2.5-2.5v-19.5c0 2.21 1.79 4 4 4z" fill="#838f9b"/><path d="m18 50v1.5c0 .69-.28 1.32-.73 1.77s-1.08.73-1.77.73c-.59 0-1.14-.21-1.57-.56-.57-.45-.93-1.15-.93-1.94v-6.5c0-.55-.45-1-1-1h-5-1c-2.21 0-4-1.79-4-4v-2h10 2c2.21 0 4 1.79 4 4v7.69z" fill="#838f9b"/><path d="m27 20.5v.07c0 .67.27 1.28.71 1.72.24.24.53.43.85.55-.24.35-.57.63-.97.82l-15.59 7.34v7h-10v-6c0-4.42 3.58-8 8-8h4l11.55-4.81c.3-.13.62-.19.94-.19h.06c.3 0 .59.05.86.15-.26.39-.41.86-.41 1.35z" fill="#ff826e"/><path d="m53 34.02v9.48c0 1.38-1.12 2.5-2.5 2.5-.69 0-1.32-.28-1.77-.73s-.73-1.08-.73-1.77v-9.48z" fill="#cf9e76"/><path d="m47 26v6.64l-4.26 1.16c-.44.12-.74.51-.74.96v8.74c0 1.38-1.12 2.5-2.5 2.5-.69 0-1.32-.28-1.77-.73s-.73-1.08-.73-1.77v-12.03c0-1.51.86-2.9 2.21-3.58l3.79-1.89z" fill="#cf9e76"/><path d="m61 24.02v10h-8-5-1v-1.38-6.64-1.98h4v2c0 .55.22 1.05.59 1.41.36.37.86.59 1.41.59 1.1 0 2-.9 2-2v-2z" fill="#e6e9ed"/><path d="m51 24.02h-4v1.98h-4v-9h-1l-11.49 5.74c-.33.17-.71.26-1.08.26-.31 0-.6-.06-.87-.16-.32-.12-.61-.31-.85-.55-.44-.44-.71-1.05-.71-1.72v-.07c0-.49.15-.96.41-1.35.23-.34.55-.63.93-.82l9.08-4.54c2.36-1.18 4.95-1.79 7.58-1.79.08 0 .17 0 .25-.01l1.75.03c4.42 0 8 3.58 8 8v4 2c0 1.1-.9 2-2 2-.55 0-1.05-.22-1.41-.59-.37-.36-.59-.86-.59-1.41z" fill="#b4dd7f"/><circle cx="10" cy="19" fill="#f0d0b4" r="5"/><path d="m45 12c-2.76 0-5-2.24-5-5s2.24-5 5-5 5 2.24 5 5c0 2.68-2.1 4.86-4.75 4.99-.08.01-.17.01-.25.01z" fill="#f0d0b4"/><path d="m53.649 45c.218-.456.351-.961.351-1.5v-8.482h8v-12h-6v-3c0-4.212-2.913-7.748-6.817-8.724 1.119-1.091 1.817-2.612 1.817-4.294 0-3.309-2.691-6-6-6s-6 2.691-6 6c0 1.77.775 3.359 1.998 4.458-1.392.319-2.747.799-4.023 1.437l-9.081 4.54c-.321.161-.605.369-.853.611-.604-.086-1.268-.034-1.878.22l-10.362 4.317c.75-1.002 1.199-2.239 1.199-3.583 0-3.309-2.691-6-6-6s-6 2.691-6 6c0 1.945.935 3.672 2.374 4.769-3.16 1.398-5.374 4.559-5.374 8.231v8 19.5c0 1.753 1.299 3.195 2.983 3.448v.052h59.017v-18zm-1.649-1.5c0 .827-.673 1.5-1.5 1.5s-1.5-.673-1.5-1.5v-8.482h3zm-38-6.5h-1v-5.365l15.02-7.068c.329-.154.617-.373.879-.62.174.027.348.053.528.053.528 0 1.058-.125 1.533-.362l11.04-5.52v7.264l-3.236 1.618c-1.705.852-2.764 2.566-2.764 4.472v12.028c0 .539.133 1.044.351 1.5h-14.742l-2.609 2.405v-5.405c0-2.757-2.243-5-5-5zm24 6.5v-12.028c0-1.144.635-2.172 1.658-2.683l3.578-1.789h2.764v4.872l-3.526.962c-.868.237-1.474 1.03-1.474 1.93v8.736c0 .827-.673 1.5-1.5 1.5s-1.5-.673-1.5-1.5zm5 0v-8.736l3-.818v1.072h1v8.482c0 .539.133 1.044.351 1.5h-4.702c.218-.456.351-.961.351-1.5zm17-18.482v8h-12v-8h2v1c0 1.654 1.346 3 3 3s3-1.346 3-3v-1zm-19-18.018c0-2.206 1.794-4 4-4s4 1.794 4 4c0 2.154-1.715 3.904-3.849 3.985l-.133-.002v.016c-.007-.001-.012.001-.018.001-2.206 0-4-1.794-4-4zm-12.211 12.224 9.081-4.54c2.201-1.102 4.667-1.684 7.13-1.684.086 0 .169-.009.254-.013l1.746.031c3.86 0 7 3.14 7 7v6c0 .551-.449 1-1 1s-1-.449-1-1v-5.159c0-2.098-.813-4.073-2.29-5.562l-1.42 1.408c1.103 1.112 1.71 2.588 1.71 4.154v2.159h-4v1.982h-2v-9h-2.236l-11.698 5.849c-.198.099-.419.151-.639.151-.787 0-1.427-.64-1.427-1.5 0-.544.302-1.033.789-1.276zm-22.789-.224c0-2.206 1.794-4 4-4s4 1.794 4 4-1.794 4-4 4-4-1.794-4-4zm4 6h4.2l11.733-4.889c.03-.012.066-.02.099-.031-.02.161-.032.325-.032.493 0 .891.35 1.696.909 2.306l-15.909 7.486v6.635h-8v-5c0-3.86 3.14-7 7-7zm-7 14h8 1 2c1.654 0 3 1.346 3 3v8 1.499c0 .828-.673 1.501-1.501 1.501-.401 0-.778-.156-1.061-.439-.284-.284-.439-.661-.439-1.062l.001-6.499c0-1.103-.897-2-2-2h-6c-1.654 0-3-1.346-3-3zm5 6h4l-.001 6.498c0 .669.193 1.307.542 1.859l-4.541 4.184zm-5 14.5v-15.526c.838.635 1.87 1.026 3 1.026v14.5c0 .827-.673 1.5-1.5 1.5s-1.5-.673-1.5-1.5zm58 1.5h-53.351c.095-.199.17-.407.227-.625l6.18-5.695c.449.204.936.32 1.443.32 1.931 0 3.501-1.57 3.501-3.501v-1.375l3.391-3.124h38.609z"/><path d="m57 57h2v2h-2z"/><path d="m53 57h2v2h-2z"/><path d="m49 57h2v2h-2z"/></svg>